:SAMPLES-PER-SECOND 30
:FRAME-RANGE 1-2045
:FULLY-SPECIFIED
:DEGREES
192
root  -65.6981 37.741 53.5424 179.226 -64.974 179.16
RightUpLeg  -20.5311 -16.3528 -4.6323
RightLeg  31.0264 -4.02361 -2.85729
RightFoot  -4.89366 -0.323037 5.13908
RightToes  -5.28216e-011 1.2921e-014 -6.02303e-014
Spine  2.37872 -3.44196 5.85291
Spine1  5.06691 -3.30631 0.760665
HEad  22.9331 -44.0326 0.18653
LeftShoulder1  0.646342 0.937166 -21.1418
LeftArm  -5.36415 14.8904 -34.0487
LeftForeArm  2.25939 -56.2107 -16.8342
LeftHand  0.30595 -1.14539 -5.34963
RightShoulder  1.71031 2.89978 21.2855
RightArm  9.63395 5.42064 57.7038
RightForeArm  19.9552 52.3878 13.0226
RightHand  0.0269504 -6.26685 -7.07649
LeftUpLeg  -14.5017 -14.6418 9.02701
LeftLeg  51.5242 1.65285 2.69145
LeftFoot  -11.1504 0.0804686 -8.25127
LeftToes  9.43379e-011 5.24309e-011 -4.66411e-011
193
root  -66.0597 37.9895 52.847 179.648 -61.5342 -179.876
RightUpLeg  -20.6961 -13.1798 -2.93286
RightLeg  29.5798 -3.87818 -2.62012
RightFoot  -4.7247 -0.312654 4.84831
RightToes  -5.28216e-011 1.2921e-014 -6.02303e-014
Spine  0.817167 -1.96708 7.06781
Spine1  6.02726 -1.67974 -0.507792
HEad  21.4263 -46.0852 1.69814
LeftShoulder1  0.654097 0.895858 -20.986
LeftArm  -5.95792 14.0991 -34.7004
LeftForeArm  1.61451 -55.9206 -16.6932
LeftHand  0.334811 -1.13649 -5.87271
RightShoulder  1.76869 3.13903 21.1669
RightArm  9.50335 6.54878 57.7646
RightForeArm  19.3937 51.769 12.7562
RightHand  0.0250155 -6.23474 -7.06283
LeftUpLeg  -16.4362 -10.247 9.40549
LeftLeg  50.024 0.189134 0.689646
LeftFoot  -12.1629 0.0119882 -8.46321
LeftToes  9.43379e-011 5.24309e-011 -4.66411e-011
194
root  -66.3915 38.2112 52.2953 -179.581 -59.1156 -179.681
RightUpLeg  -20.6766 -11.1165 -2.01463
RightLeg  28.6112 -3.74252 -2.44767
RightFoot  -4.45601 -0.291985 4.3462
RightToes  -5.28216e-011 1.2921e-014 -6.02303e-014
Spine  0.138702 -0.975879 7.76038
Spine1  6.40892 -0.550701 -1.42781
HEad  19.4956 -48.0973 3.58602
LeftShoulder1  0.774139 0.404413 -20.4954
LeftArm  -6.59762 13.765 -35.0409
LeftForeArm  1.46631 -55.9144 -16.7019
LeftHand  0.332408 -1.14917 -5.81716
RightShoulder  1.7163 2.87349 21.5144
RightArm  9.52069 7.4284 57.7372
RightForeArm  19.5423 52.1046 12.9128
RightHand  0.0389036 -6.46563 -7.142
LeftUpLeg  -17.6432 -8.46621 9.12024
LeftLeg  46.2134 -1.98136 -1.79781
LeftFoot  -12.7591 -0.0561819 -10.678
LeftToes  9.43379e-011 5.24309e-011 -4.66411e-011
195
root  -66.6848 38.3865 51.8946 -178.461 -58.2043 179.704
RightUpLeg  -20.3959 -10.7247 -2.00478
RightLeg  28.0201 -3.2532 -2.11261
RightFoot  -4.43681 -0.285263 4.22501
RightToes  -5.28216e-011 1.2921e-014 -6.02303e-014
Spine  0.463956 -0.931115 7.48438
Spine1  5.94359 -0.530598 -1.56582
HEad  17.4466 -49.4547 5.0066
LeftShoulder1  0.780746 0.356012 -20.2667
LeftArm  -6.92158 13.5496 -34.8358
LeftForeArm  1.19845 -56.1229 -16.867
LeftHand  0.330194 -1.13256 -5.79428
RightShoulder  1.70481 2.91147 21.1354
RightArm  9.79976 7.80969 58.1271
RightForeArm  19.7541 52.6074 13.1534
RightHand  0.0474228 -6.59174 -7.25423
LeftUpLeg  -18.553 -8.64629 8.49142
LeftLeg  41.1236 -4.23278 -3.56898
LeftFoot  -13.2455 -0.130206 -12.5526
LeftToes  9.43379e-011 5.24309e-011 -4.66411e-011
196
root  -66.9765 38.5208 51.5787 -177.221 -57.1194 178.746
RightUpLeg  -20.1716 -10.0052 -2.43662
RightLeg  27.7121 -2.6831 -1.76317
RightFoot  -4.5434 -0.295564 4.45234
RightToes  -5.28216e-011 1.2921e-014 -6.02303e-014
Spine  0.708326 -0.872843 6.88296
Spine1  5.82009 -0.487403 -1.71933
HEad  14.7407 -50.896 6.93961
LeftShoulder1  0.803588 0.262067 -20.1958
LeftArm  -7.3331 13.2723 -34.2425
LeftForeArm  1.31982 -56.343 -17.0081
LeftHand  0.409973 -1.49585 -6.79827
RightShoulder  1.69676 2.97143 20.7178
RightArm  10.0391 7.90069 58.5675
RightForeArm  19.9719 53.2811 13.4916
RightHand  0.0540541 -6.66 -7.4727
LeftUpLeg  -18.9925 -10.3626 7.88188
LeftLeg  35.7296 -5.04723 -3.5319
LeftFoot  -13.573 -0.168 -12.7425
LeftToes  9.43379e-011 5.24309e-011 -4.66411e-011
197
root  -67.2777 38.6017 51.4224 -176.001 -56.0195 177.654
RightUpLeg  -20.2037 -9.56348 -3.2051
RightLeg  27.9172 -1.91891 -1.33716
RightFoot  -4.70162 -0.300703 4.6285
RightToes  -5.28216e-011 1.2921e-014 -6.02303e-014
Spine  1.34334 -0.943962 6.69994
Spine1  5.40497 -0.448881 -2.27587
HEad  11.6623 -52.6312 9.01352
LeftShoulder1  0.783622 0.316774 -19.9975
LeftArm  -7.69997 13.0793 -33.8209
LeftForeArm  1.5197 -56.9997 -17.4553
LeftHand  0.410617 -1.48653 -6.81934
RightShoulder  1.69974 3.05349 20.3955
RightArm  10.1768 7.48145 58.813
RightForeArm  20.3485 54.4501 14.1083
RightHand  0.0705606 -6.84572 -7.85891
LeftUpLeg  -19.4116 -14.2894 7.54101
LeftLeg  30.6917 -4.70344 -2.66534
LeftFoot  -12.8707 -0.0870963 -12.2463
LeftToes  9.43379e-011 5.24309e-011 -4.66411e-011
198
root  -67.5596 38.6319 51.3249 -175.187 -54.1114 177.123
RightUpLeg  -20.5083 -8.24052 -3.66109
RightLeg  28.021 -1.41081 -1.04817
RightFoot  -4.87148 -0.297403 4.6715
RightToes  -5.28216e-011 1.2921e-014 -6.02303e-014
Spine  1.96172 -0.795842 6.86174
Spine1  4.93732 -0.0963537 -3.16675
HEad  8.22752 -54.7724 11.5431
LeftShoulder1  0.711627 0.542263 -19.4964
LeftArm  -8.37811 13.3514 -33.5838
LeftForeArm  2.43868 -58.17 -18.248
LeftHand  0.396423 -1.36726 -6.70823
RightShoulder  1.73542 3.17658 20.4454
RightArm  10.3863 6.91947 58.7688
RightForeArm  20.9211 55.7711 14.842
RightHand  0.0933242 -7.12001 -8.18603
LeftUpLeg  -20.0257 -17.8933 7.98873
LeftLeg  26.6613 -5.37648 -2.59406
LeftFoot  -12.0254 0.00348014 -11.4199
LeftToes  9.43379e-011 5.24309e-011 -4.66411e-011
199
root  -67.8478 38.6069 51.3274 -174.852 -51.9558 177.049
RightUpLeg  -20.9603 -6.4876 -4.04454
RightLeg  28.3418 -0.994975 -0.816382
RightFoot  -5.08559 -0.304094 4.92719
RightToes  -5.28216e-011 1.2921e-014 -6.02303e-014
Spine  2.52843 -0.609467 6.88917
Spine1  4.71178 0.140973 -3.34059
HEad  4.92318 -56.9629 13.643
LeftShoulder1  0.673012 0.690677 -19.4798
LeftArm  -9.16726 13.7961 -33.0187
LeftForeArm  3.37409 -59.5013 -19.2397
LeftHand  0.396568 -1.26775 -6.82174
RightShoulder  1.79033 3.35273 20.5759
RightArm  10.6798 6.23101 58.4397
RightForeArm  21.3752 57.5019 15.9244
RightHand  0.130761 -7.56633 -8.56878
LeftUpLeg  -20.888 -20.7355 8.85171
LeftLeg  24.2814 -8.35514 -3.77315
LeftFoot  -12.0955 -0.00222907 -11.2888
LeftToes  9.43379e-011 5.24309e-011 -4.66411e-011
200
root  -68.1428 38.5283 51.4528 -174.567 -49.1777 176.993
RightUpLeg  -21.8435 -5.05343 -4.57599
RightLeg  29.042 0.225834 -0.100344
RightFoot  -5.30484 -0.298789 4.97769
RightToes  -5.28216e-011 1.2921e-014 -6.02303e-014
Spine  3.27849 -0.419292 6.96655
Spine1  4.3159 0.43353 -3.68474
HEad  2.10795 -58.4006 15.0837
LeftShoulder1  0.625871 0.863109 -19.3579
LeftArm  -10.0479 14.7073 -32.477
LeftForeArm  4.15268 -60.7538 -20.2731
LeftHand  0.399259 -1.24318 -6.89684
RightShoulder  1.86326 3.54788 20.9021
RightArm  11.0923 5.3982 57.8869
RightForeArm  22.6165 59.7461 17.4509
RightHand  0.174911 -8.07011 -8.92866
LeftUpLeg  -21.9007 -23.0832 9.76776
LeftLeg  23.2775 -12.5423 -5.53063
LeftFoot  -11.7782 0.024391 -12.0174
LeftToes  9.43379e-011 5.24309e-011 -4.66411e-011
201
root  -68.4191 38.4343 51.6656 -175.188 -47.4588 178.091
RightUpLeg  -22.4633 -4.25168 -4.34187
RightLeg  29.3924 1.07734 0.41968
RightFoot  -5.30066 -0.312508 5.2342
RightToes  -5.28216e-011 1.2921e-014 -6.02303e-014
Spine  4.10723 -0.826006 7.23411
Spine1  3.8054 -0.118007 -3.06148
HEad  -0.229519 -58.6037 16.0025
LeftShoulder1  0.577053 1.05755 -19.4059
LeftArm  -10.7948 15.9897 -31.6182
LeftForeArm  5.02573 -62.0632 -21.4575
LeftHand  0.405913 -1.24881 -7.00685
RightShoulder  1.8238 3.36179 21.0763
RightArm  11.7675 4.28409 57.816
RightForeArm  24.926 62.1921 19.3046
RightHand  0.179999 -8.22035 -8.70055
LeftUpLeg  -23.4937 -25.8214 11.7946
LeftLeg  23.7726 -18.356 -8.3328
LeftFoot  -11.5686 0.0448562 -12.179
LeftToes  9.43379e-011 5.24309e-011 -4.66411e-011
202
root  -68.6941 38.2697 52.019 -175.39 -45.7647 179.458
RightUpLeg  -24.0932 -3.47233 -4.0094
RightLeg  30.0963 1.90655 0.954724
RightFoot  -5.15837 -0.339539 5.63083
RightToes  -5.28216e-011 1.2921e-014 -6.02303e-014
Spine  4.48099 -1.46717 7.77712
Spine1  3.06587 -0.96418 -2.38909
HEad  -1.01754 -57.7663 15.6873
LeftShoulder1  0.510696 1.31472 -19.3876
LeftArm  -11.3954 17.7025 -30.5726
LeftForeArm  5.89076 -63.3355 -22.7335
LeftHand  0.423578 -1.31787 -7.2333
RightShoulder  1.83926 3.33114 21.4609
RightArm  12.7854 3.17642 57.4002
RightForeArm  27.0009 64.3027 21.2107
RightHand  0.203086 -8.53258 -8.7294
LeftUpLeg  -25.9074 -28.001 14.2781
LeftLeg  25.2754 -24.0568 -11.5725
LeftFoot  -11.4012 0.0613455 -12.8065
LeftToes  9.43379e-011 5.24309e-011 -4.66411e-011
203
root  -68.9593 38.1351 52.4707 -175.43 -42.9711 -179.259
RightUpLeg  -26.0181 -0.872302 -3.98523
RightLeg  30.4745 2.37421 1.26783
RightFoot  -4.39251 -0.428379 6.55464
RightToes  -5.28216e-011 1.2921e-014 -6.02303e-014
Spine  4.76482 -1.8103 8.21754
Spine1  2.76135 -1.4553 -1.82939
HEad  -1.22995 -55.6403 15.2607
LeftShoulder1  0.436428 1.57916 -18.9875
LeftArm  -11.732 19.3822 -29.8836
LeftForeArm  6.38067 -64.2779 -23.7916
LeftHand  0.440977 -1.35782 -7.4857
RightShoulder  1.84639 3.29393 21.7428
RightArm  13.8905 2.15041 57.1212
RightForeArm  28.9577 66.1475 23.1783
RightHand  0.228291 -8.82776 -8.85935
LeftUpLeg  -27.3559 -27.7757 15.9305
LeftLeg  26.6457 -28.0332 -14.1153
LeftFoot  -9.88951 0.20649 -11.6032
LeftToes  9.43379e-011 5.24309e-011 -4.66411e-011
204
root  -69.2202 38.0202 53.0696 -175.088 -38.4877 -178.13
RightUpLeg  -28.6427 3.4165 -4.38531
RightLeg  30.522 2.84364 1.56932
RightFoot  -2.7017 -0.619396 7.94269
RightToes  -5.28216e-011 1.2921e-014 -6.02303e-014
Spine  5.93406 -1.70735 8.56461
Spine1  1.76352 -1.38886 -1.34418
HEad  -1.20399 -52.5231 15.1724
LeftShoulder1  0.344472 1.93941 -18.9214
LeftArm  -12.2761 21.4941 -29.1523
LeftForeArm  7.17432 -65.1844 -24.8591
LeftHand  0.46662 -1.58081 -7.65027
RightShoulder  1.85456 3.32142 21.7513
RightArm  15.1358 1.5213 57.1756
RightForeArm  30.5839 67.3295 24.5845
RightHand  0.24942 -9.01076 -9.09624
LeftUpLeg  -28.1756 -27.0277 17.1927
LeftLeg  27.4178 -28.5388 -14.7958
LeftFoot  -9.8924 0.153952 -7.48563
LeftToes  9.43379e-011 5.24309e-011 -4.66411e-011
